<?xml version="1.0" encoding="UTF-8"?>
<svg xmlns="http://www.w3.org/2000/svg" xmlns:xlink="http://www.w3.org/1999/xlink" width="40pt" height="40pt" viewBox="0 0 40 40" version="1.1">
<g id="surface1">
<path style=" stroke:none;fill-rule:nonzero;fill:rgb(0%,0%,100%);fill-opacity:1;" d="M 9.246094 13.035156 L 7.527344 25.621094 L 17.765625 25.6875 C 18.296875 25.691406 18.5625 26.234375 18.5625 27.328125 C 18.5625 28.101562 18.46875 28.699219 18.28125 29.121094 C 18.09375 29.554688 17.835938 29.773438 17.503906 29.769531 L 6.972656 29.699219 L 6.902344 30.179688 C 6.636719 31.953125 6.425781 33.199219 6.273438 33.917969 C 6.121094 34.636719 5.921875 35.328125 5.679688 36 C 5.039062 37.742188 4.308594 38.613281 3.480469 38.613281 C 2.808594 38.613281 2.253906 38.015625 1.820312 36.820312 C 1.378906 35.625 1.160156 34.105469 1.160156 32.261719 C 1.160156 31.113281 1.253906 30.035156 1.441406 29.035156 C 1.628906 28.03125 1.882812 27.253906 2.203125 26.695312 C 2.617188 25.976562 3.183594 25.621094 3.898438 25.621094 L 5.917969 25.621094 L 7.628906 13.035156 L 6.789062 13.035156 C 6.363281 13.035156 6.148438 12.472656 6.148438 11.34375 C 6.148438 10.605469 6.242188 10.023438 6.429688 9.605469 C 6.617188 9.171875 6.875 8.957031 7.207031 8.957031 L 8.1875 8.957031 L 8.449219 7.027344 C 8.949219 3.335938 9.714844 1.492188 10.742188 1.492188 C 11.261719 1.492188 11.699219 1.988281 12.046875 2.980469 C 12.394531 3.957031 12.566406 5.1875 12.566406 6.667969 C 12.566406 8.558594 12.316406 10.09375 11.8125 11.277344 C 11.308594 12.449219 10.652344 13.035156 9.847656 13.035156 Z M 9.800781 8.957031 L 10.066406 8.957031 C 10.351562 8.957031 10.59375 8.746094 10.796875 8.324219 C 11.003906 7.890625 11.105469 7.367188 11.105469 6.753906 C 11.105469 5.84375 10.964844 5.386719 10.675781 5.386719 C 10.417969 5.386719 10.179688 6.183594 9.960938 7.777344 Z M 5.355469 29.699219 L 3.851562 29.699219 C 3.101562 29.699219 2.730469 30.492188 2.730469 32.074219 C 2.730469 32.722656 2.8125 33.261719 2.976562 33.695312 C 3.140625 34.140625 3.34375 34.363281 3.59375 34.363281 C 3.933594 34.363281 4.261719 33.941406 4.574219 33.097656 C 4.890625 32.265625 5.152344 31.136719 5.355469 29.699219 Z M 5.355469 29.699219 "/>
<path style=" stroke:none;fill-rule:nonzero;fill:rgb(0%,0%,100%);fill-opacity:1;" d="M 12.757812 11.738281 C 13.308594 11.738281 13.765625 12.261719 14.121094 13.308594 C 14.480469 14.355469 14.65625 15.6875 14.65625 17.304688 C 14.65625 18.523438 14.5625 19.734375 14.378906 20.941406 C 14.191406 22.136719 13.949219 23.09375 13.648438 23.808594 C 13.453125 24.277344 13.246094 24.601562 13.03125 24.78125 C 12.820312 24.953125 12.527344 25.039062 12.144531 25.039062 C 11.523438 25.039062 11.101562 24.816406 10.882812 24.375 C 10.371094 23.324219 10.117188 21.777344 10.117188 19.730469 C 10.117188 17.566406 10.378906 15.695312 10.902344 14.113281 C 11.425781 12.53125 12.042969 11.738281 12.757812 11.738281 Z M 12.621094 15.375 C 12.335938 15.375 12.078125 15.789062 11.847656 16.621094 C 11.613281 17.453125 11.496094 18.367188 11.496094 19.371094 C 11.496094 20.691406 11.746094 21.351562 12.242188 21.351562 C 12.53125 21.351562 12.753906 21.082031 12.910156 20.546875 C 13.171875 19.671875 13.300781 18.671875 13.300781 17.542969 C 13.300781 16.894531 13.238281 16.371094 13.113281 15.972656 C 12.984375 15.574219 12.820312 15.375 12.621094 15.375 Z M 12.621094 15.375 "/>
<path style=" stroke:none;fill-rule:nonzero;fill:rgb(0%,0%,100%);fill-opacity:1;" d="M 17.71875 11.738281 C 18.273438 11.738281 18.726562 12.261719 19.082031 13.308594 C 19.441406 14.355469 19.621094 15.6875 19.621094 17.304688 C 19.621094 18.523438 19.527344 19.734375 19.339844 20.941406 C 19.152344 22.136719 18.910156 23.09375 18.613281 23.808594 C 18.414062 24.277344 18.210938 24.601562 17.996094 24.78125 C 17.785156 24.953125 17.488281 25.039062 17.109375 25.039062 C 16.484375 25.039062 16.066406 24.816406 15.847656 24.375 C 15.335938 23.324219 15.082031 21.777344 15.082031 19.730469 C 15.082031 17.566406 15.34375 15.695312 15.863281 14.113281 C 16.386719 12.53125 17.007812 11.738281 17.71875 11.738281 Z M 17.582031 15.375 C 17.300781 15.375 17.042969 15.789062 16.808594 16.621094 C 16.578125 17.453125 16.460938 18.367188 16.460938 19.371094 C 16.460938 20.691406 16.707031 21.351562 17.203125 21.351562 C 17.496094 21.351562 17.71875 21.082031 17.875 20.546875 C 18.132812 19.671875 18.265625 18.671875 18.265625 17.542969 C 18.265625 16.894531 18.203125 16.371094 18.074219 15.972656 C 17.949219 15.574219 17.785156 15.375 17.582031 15.375 Z M 17.582031 15.375 "/>
<path style=" stroke:none;fill-rule:nonzero;fill:rgb(0%,0%,100%);fill-opacity:1;" d="M 21.058594 23.707031 L 19.566406 34.667969 C 19.359375 36.183594 19.058594 36.941406 18.660156 36.941406 C 18.507812 36.941406 18.378906 36.785156 18.269531 36.480469 C 18.160156 36.183594 18.105469 35.824219 18.105469 35.402344 C 18.105469 35.050781 18.152344 34.515625 18.25 33.796875 L 21.007812 13.515625 C 21.148438 12.488281 21.394531 11.976562 21.742188 11.976562 C 21.980469 11.976562 22.171875 12.320312 22.3125 13 C 22.582031 12.160156 22.90625 11.738281 23.292969 11.738281 C 23.695312 11.738281 24.015625 12.195312 24.261719 13.105469 C 24.507812 14.003906 24.632812 15.191406 24.632812 16.671875 C 24.632812 19.472656 24.339844 21.753906 23.757812 23.519531 C 23.566406 24.101562 23.371094 24.5 23.167969 24.714844 C 22.964844 24.929688 22.683594 25.039062 22.320312 25.039062 C 21.929688 25.039062 21.660156 24.960938 21.511719 24.800781 C 21.367188 24.640625 21.214844 24.277344 21.058594 23.707031 Z M 21.53125 20.222656 C 21.625 20.726562 21.714844 21.050781 21.800781 21.199219 C 21.886719 21.34375 22.023438 21.417969 22.210938 21.417969 C 22.480469 21.417969 22.695312 21.117188 22.847656 20.515625 C 23.15625 19.296875 23.3125 18.042969 23.3125 16.757812 C 23.3125 15.652344 23.136719 15.101562 22.785156 15.101562 C 22.398438 15.101562 22.121094 15.769531 21.953125 17.101562 C 21.933594 17.246094 21.917969 17.371094 21.90625 17.476562 Z M 21.53125 20.222656 "/>
<path style=" stroke:none;fill-rule:nonzero;fill:rgb(0%,0%,100%);fill-opacity:1;" d="M 26.433594 21.316406 L 27.078125 21.316406 C 27.5625 21.316406 27.800781 21.824219 27.800781 22.835938 C 27.800781 23.53125 27.714844 24.070312 27.542969 24.457031 C 27.375 24.847656 27.140625 25.039062 26.832031 25.039062 L 25.921875 25.039062 C 25.585938 25.039062 25.320312 24.835938 25.128906 24.425781 C 24.9375 24.015625 24.839844 23.457031 24.839844 22.75 C 24.839844 22.375 24.882812 21.898438 24.960938 21.316406 L 25.90625 14.386719 L 25.96875 13.90625 C 26.144531 12.621094 26.425781 11.976562 26.816406 11.976562 C 26.976562 11.976562 27.113281 12.136719 27.230469 12.457031 C 27.347656 12.773438 27.40625 13.15625 27.40625 13.597656 C 27.40625 13.964844 27.355469 14.519531 27.25 15.273438 Z M 27.1875 6.53125 C 27.410156 6.53125 27.597656 6.765625 27.75 7.230469 C 27.90625 7.6875 27.984375 8.242188 27.984375 8.902344 C 27.984375 9.5625 27.90625 10.128906 27.75 10.59375 C 27.597656 11.050781 27.410156 11.277344 27.1875 11.277344 C 26.96875 11.277344 26.777344 11.050781 26.621094 10.59375 C 26.46875 10.128906 26.394531 9.5625 26.394531 8.902344 C 26.394531 8.242188 26.46875 7.6875 26.621094 7.230469 C 26.777344 6.765625 26.96875 6.53125 27.1875 6.53125 Z M 27.1875 6.53125 "/>
<path style=" stroke:none;fill-rule:nonzero;fill:rgb(0%,0%,100%);fill-opacity:1;" d="M 32.484375 21.316406 L 33.171875 21.316406 C 33.65625 21.316406 33.898438 21.824219 33.898438 22.835938 C 33.898438 23.53125 33.8125 24.070312 33.640625 24.457031 C 33.46875 24.847656 33.230469 25.039062 32.929688 25.039062 L 31.734375 25.039062 C 31.5 25.039062 31.304688 24.828125 31.144531 24.40625 C 30.988281 23.988281 30.910156 23.457031 30.910156 22.820312 C 30.910156 22.433594 30.960938 21.851562 31.070312 21.078125 L 31.574219 17.355469 C 31.625 16.96875 31.65625 16.65625 31.660156 16.417969 C 31.664062 16.144531 31.625 15.910156 31.542969 15.714844 C 31.46875 15.523438 31.367188 15.425781 31.246094 15.425781 C 30.851562 15.425781 30.535156 16.308594 30.296875 18.074219 L 29.621094 23.023438 C 29.417969 24.527344 29.117188 25.277344 28.714844 25.277344 C 28.550781 25.277344 28.410156 25.128906 28.296875 24.835938 C 28.183594 24.539062 28.125 24.175781 28.125 23.742188 C 28.125 23.421875 28.15625 23.042969 28.21875 22.597656 L 28.28125 22.136719 L 29.4375 13.632812 C 29.585938 12.53125 29.839844 11.976562 30.199219 11.976562 C 30.492188 11.976562 30.703125 12.363281 30.828125 13.136719 C 31.238281 12.203125 31.625 11.738281 31.996094 11.738281 C 32.355469 11.738281 32.652344 12.046875 32.882812 12.660156 C 33.117188 13.273438 33.234375 14.054688 33.234375 15 C 33.234375 15.523438 33.191406 16.097656 33.109375 16.722656 Z M 32.484375 21.316406 "/>
<path style=" stroke:none;fill-rule:nonzero;fill:rgb(0%,0%,100%);fill-opacity:1;" d="M 37.371094 25.515625 L 38.054688 25.515625 C 38.542969 25.515625 38.785156 26.019531 38.785156 27.019531 C 38.785156 27.714844 38.699219 28.253906 38.527344 28.640625 C 38.355469 29.039062 38.117188 29.238281 37.816406 29.238281 L 36.867188 29.238281 L 36.625 31 C 36.039062 35.265625 35.1875 37.402344 34.066406 37.402344 C 33.476562 37.402344 32.988281 36.859375 32.597656 35.777344 C 32.207031 34.699219 32.007812 33.34375 32.007812 31.714844 C 32.007812 30.65625 32.105469 29.660156 32.296875 28.726562 C 32.484375 27.804688 32.742188 27.070312 33.070312 26.523438 C 33.472656 25.851562 34.015625 25.515625 34.699219 25.515625 L 35.933594 25.515625 L 36.109375 24.1875 C 35.867188 24.617188 35.640625 24.835938 35.429688 24.835938 C 35.019531 24.835938 34.6875 24.414062 34.429688 23.570312 C 34.179688 22.730469 34.054688 21.628906 34.054688 20.277344 C 34.054688 18.089844 34.3125 16.121094 34.828125 14.367188 C 35.34375 12.613281 35.921875 11.738281 36.5625 11.738281 C 37.03125 11.738281 37.382812 12.195312 37.617188 13.105469 C 37.796875 12.195312 38.050781 11.738281 38.378906 11.738281 C 38.539062 11.738281 38.671875 11.898438 38.785156 12.214844 C 38.898438 12.523438 38.957031 12.898438 38.957031 13.34375 C 38.957031 13.695312 38.90625 14.238281 38.808594 14.964844 Z M 36.625 20.394531 L 37.089844 17.015625 C 37.125 16.730469 37.144531 16.496094 37.144531 16.3125 C 37.144531 15.972656 37.09375 15.6875 36.992188 15.460938 C 36.890625 15.234375 36.765625 15.117188 36.613281 15.117188 C 36.339844 15.117188 36.074219 15.589844 35.824219 16.535156 C 35.574219 17.46875 35.449219 18.460938 35.449219 19.507812 C 35.449219 20.703125 35.636719 21.300781 36.011719 21.300781 C 36.335938 21.300781 36.539062 21 36.625 20.394531 Z M 35.421875 29.238281 L 34.429688 29.238281 C 34.089844 29.238281 33.820312 29.457031 33.628906 29.886719 C 33.441406 30.320312 33.347656 30.929688 33.347656 31.714844 C 33.347656 32.25 33.414062 32.707031 33.542969 33.082031 C 33.671875 33.457031 33.835938 33.644531 34.023438 33.644531 C 34.300781 33.644531 34.539062 33.320312 34.746094 32.671875 C 34.953125 32.023438 35.179688 30.878906 35.421875 29.238281 Z M 35.421875 29.238281 "/>
<path style=" stroke:none;fill-rule:nonzero;fill:rgb(0%,0%,100%);fill-opacity:1;" d="M 22.023438 25.652344 L 30.933594 25.617188 C 31.996094 25.628906 32 29.863281 30.933594 29.800781 L 21.929688 29.800781 C 20.699219 29.832031 20.6875 25.597656 22.023438 25.652344 Z M 22.023438 25.652344 "/>
</g>
</svg>
